# xmcd
#
# Track frame offsets:
# 150
# 15118
# 37779
# 56719
#
# Disc length: 888 seconds
#
# Revision: 1
# Processed by: cddbd v1.5.2PL0 Copyright (c) Steve Scherf et al.
# Submitted via: CedeCatalogueitor 2.6.0.6 http://personales.ya.com/cdcatalogueitor
#
DISCID=1f037604
DTITLE=Lightspeed Champion - Bye Bye
DYEAR=1900
DGENRE=
TTITLE0=Til I Die
TTITLE1=Underwater There Is Nothing
TTITLE2=Bye Bye Icarus
TTITLE3=The Mess You're In
EXTD=
EXTT0=
EXTT1=
EXTT2=
EXTT3=
PLAYORDER=
